<svg width="173" height="173" viewBox="0 0 173 173" fill="none" xmlns="http://www.w3.org/2000/svg">
<path d="M86.5289 172.425C133.968 172.425 172.426 133.968 172.426 86.5285C172.426 39.0891 133.968 0.631836 86.5289 0.631836C39.0895 0.631836 0.632217 39.0891 0.632217 86.5285C0.632217 133.968 39.0895 172.425 86.5289 172.425Z" fill="#D4AA00"/>
<path d="M158.432 128.047L86.5288 169.565L14.6259 128.047L14.6259 45.0098L86.5288 3.49121L158.432 45.0098V128.047Z" stroke="white" stroke-width="5.54007" stroke-linecap="round"/>
<path d="M50.5793 148.434C46.1425 136.884 41.7056 125.334 35.7166 114.965C29.7276 104.597 22.1864 95.4109 14.6453 86.2246" stroke="white" stroke-width="5.54009" stroke-linecap="round"/>
<path d="M86.0619 168.854C77.1846 145.868 68.3074 122.882 56.4167 102.262C44.5261 81.6418 29.622 63.3878 14.7179 45.1338" stroke="white" stroke-width="5.5401" stroke-linecap="round"/>
<path d="M86.7039 169.284C95.5839 146.426 104.464 123.567 116.367 102.9C128.269 82.2316 143.195 63.754 158.12 45.2764" stroke="white" stroke-width="5.54008" stroke-linecap="round"/>
<path d="M121.082 149.573C125.72 137.884 130.358 126.196 136.546 115.758C142.733 105.321 150.471 96.1345 158.209 86.9482" stroke="white" stroke-width="5.54008" stroke-linecap="round"/>
<path d="M62.09 111.88C68.6246 95.9031 75.1591 79.9257 84.8176 65.2893C94.4762 50.653 107.259 37.3578 120.041 24.0625" stroke="white" stroke-width="5.54008" stroke-linecap="round"/>
<path d="M110.694 113.344C104.156 96.8345 97.6171 80.3248 87.9679 65.4723C78.3187 50.6198 65.5589 37.4247 52.7992 24.2295" stroke="white" stroke-width="5.54007" stroke-linecap="round"/>
</svg>
